<svg xmlns="http://www.w3.org/2000/svg" width="192" height="136" viewBox="0 0 192 136" version="1.1">
	<path d="M -0 68.005 L -0 136.010 96.250 135.755 L 192.500 135.500 192.757 67.750 L 193.014 0 96.507 0 L 0 0 -0 68.005 M 0.473 68.500 C 0.473 105.900, 0.597 121.055, 0.750 102.177 C 0.902 83.299, 0.902 52.699, 0.749 34.177 C 0.597 15.655, 0.473 31.100, 0.473 68.500 M 151.140 71.355 C 149.387 73.165, 146.050 75.619, 143.726 76.809 C 141.402 77.999, 140.185 78.978, 141.021 78.986 C 141.858 78.994, 145.220 77.240, 148.491 75.089 C 154.361 71.229, 154.474 71.201, 156.970 72.947 C 160.210 75.213, 164.810 77.549, 163.500 76.263 C 162.950 75.723, 160.662 73.658, 158.415 71.673 L 154.329 68.065 151.140 71.355 M 23.199 81.462 C 21.675 84.807, 21.691 85, 23.487 85 C 24.728 85, 24.869 86.244, 24.341 92.500 L 23.707 100 27.704 100 C 36.580 100, 40.945 96.003, 38.026 90.548 C 37.112 88.841, 37.079 87.721, 37.898 86.191 C 38.504 85.058, 39 83.202, 39 82.066 C 39 80.293, 38.380 80, 34.625 80 C 32.219 80, 28.933 79.737, 27.324 79.415 C 24.856 78.921, 24.211 79.241, 23.199 81.462 M 49.971 79.892 C 46.628 80.468, 46.426 80.729, 46.136 84.864 C 45.968 87.265, 45.197 91.025, 44.422 93.221 C 42.949 97.397, 43.228 99, 45.429 99 C 46.653 99, 48.084 94.913, 49.541 87.250 C 50.602 81.673, 52.768 83.317, 53.512 90.265 C 54.292 97.551, 56.153 100.948, 58.361 99.115 C 59.556 98.124, 59.581 97.257, 58.518 93.717 C 57.821 91.398, 56.928 87.138, 56.532 84.250 C 56.115 81.210, 55.326 79.060, 54.656 79.142 C 54.020 79.220, 51.912 79.557, 49.971 79.892 M 65 89.727 C 65 99.333, 65.130 100, 67 100 C 68.833 100, 69 99.333, 69 92 C 69 84.107, 69.034 84, 71.531 84 C 74.302 84, 74.250 83.898, 75.856 92.436 C 77.140 99.263, 78.239 100.876, 80.390 99.091 C 81.682 98.019, 81.686 97.361, 80.423 93.782 C 79.630 91.536, 78.696 87.264, 78.346 84.290 L 77.711 78.883 71.355 79.169 L 65 79.454 65 89.727 M 95.304 80.214 C 89.764 81.379, 85 85.828, 85 89.836 C 85 96.347, 88.457 100.502, 93.302 99.813 C 95.383 99.517, 95.324 99.342, 92.202 96.542 C 89.653 94.256, 88.972 92.916, 89.202 90.641 C 89.563 87.071, 93.248 84.125, 97.750 83.805 C 100.074 83.640, 101 83.082, 101 81.846 C 101 79.449, 100.127 79.199, 95.304 80.214 M 113.750 79.737 C 110.499 80.070, 110 80.460, 110 82.666 C 110 84.066, 109.297 87.925, 108.437 91.243 C 107.333 95.502, 107.187 97.587, 107.937 98.337 C 109.589 99.989, 110.659 98.155, 112.220 91 C 114.132 82.239, 116.276 82.159, 117.104 90.818 C 117.747 97.542, 120.013 101.387, 122.101 99.299 C 122.921 98.479, 122.920 97.288, 122.097 94.795 C 121.482 92.931, 120.646 88.764, 120.239 85.535 C 119.444 79.219, 119.380 79.162, 113.750 79.737 M 130 87.588 C 130 92.215, 129.602 96, 129.117 96 C 128.631 96, 127.998 96.900, 127.710 98 C 127.282 99.636, 127.671 99.992, 129.844 99.956 C 133.905 99.888, 142.353 97.441, 142.762 96.213 C 142.978 95.565, 141.372 94.995, 138.813 94.811 L 134.500 94.500 134 87.091 C 133.591 81.025, 133.183 79.636, 131.750 79.429 C 130.202 79.206, 130 80.148, 130 87.588 M 153.256 80.038 C 149.631 81.480, 146.819 86.880, 147.366 91.348 C 148.392 99.742, 156.373 102.910, 161.411 96.923 C 167.763 89.374, 161.643 76.701, 153.256 80.038 M 29.667 83.667 C 29.300 84.033, 29 85.383, 29 86.667 C 29 88.319, 29.573 89, 30.965 89 C 32.835 89, 35 86.352, 35 84.066 C 35 82.905, 30.747 82.587, 29.667 83.667 M 152.200 85.200 C 151.540 85.860, 151 88.020, 151 90 C 151 94.137, 152.441 96, 155.643 96 C 158.231 96, 161 92.563, 161 89.349 C 161 84.990, 155.163 82.237, 152.200 85.200 M 29.380 93.452 C 29.074 94.251, 29.115 95.377, 29.472 95.955 C 30.364 97.397, 34 95.398, 34 93.465 C 34 91.566, 30.108 91.555, 29.380 93.452 M 97 94.878 C 97 98.373, 99.502 100.898, 101.242 99.158 C 102.119 98.281, 102.109 97.709, 101.200 96.800 C 100.540 96.140, 100 94.790, 100 93.800 C 100 92.810, 99.325 92, 98.500 92 C 97.514 92, 97 92.986, 97 94.878 M 50.188 96.063 C 50.428 96.784, 51.216 97.572, 51.938 97.813 C 52.688 98.063, 53.063 97.688, 52.813 96.938 C 52.572 96.216, 51.784 95.428, 51.063 95.188 C 50.313 94.938, 49.938 95.313, 50.188 96.063 M 114 96.500 C 114 97.325, 114.661 98, 115.469 98 C 116.363 98, 116.712 97.414, 116.362 96.500 C 116.045 95.675, 115.384 95, 114.893 95 C 114.402 95, 114 95.675, 114 96.500 M 57 107.015 C 55.762 107.828, 55.927 108.117, 57.946 108.668 C 60.214 109.287, 60.250 109.392, 58.446 110.098 C 56.647 110.802, 56.670 110.865, 58.750 110.930 C 61.376 111.012, 61.764 109.230, 59.323 108.294 C 57.823 107.718, 57.849 107.571, 59.573 106.895 C 60.859 106.392, 61.001 106.122, 60 106.086 C 59.175 106.055, 57.825 106.474, 57 107.015 M 71.667 106.667 C 70.359 107.975, 71.035 109.001, 73.250 109.070 C 75.397 109.137, 75.408 109.180, 73.500 110 C 71.592 110.820, 71.603 110.863, 73.750 110.930 C 76.327 111.010, 76.781 109.237, 74.416 108.329 C 73.141 107.840, 73.092 107.557, 74.166 106.876 C 75.218 106.209, 75.165 106.027, 73.917 106.015 C 73.046 106.007, 72.033 106.300, 71.667 106.667 M 99.036 107.456 C 97.548 109.249, 98.495 111, 100.952 111 C 103.189 111, 104.258 108.658, 102.722 107.122 C 101.239 105.639, 100.488 105.707, 99.036 107.456 M 121.667 106.667 C 121.300 107.033, 121 108.158, 121 109.167 C 121 111.199, 124.422 111.744, 125.566 109.893 C 126.032 109.139, 125.534 109.013, 124.007 109.498 C 122.347 110.025, 121.892 109.858, 122.257 108.855 C 122.528 108.110, 123.290 107.624, 123.949 107.775 C 124.609 107.926, 124.864 107.588, 124.515 107.025 C 123.788 105.847, 122.631 105.702, 121.667 106.667 M 128.750 106.662 C 129.438 106.940, 130.563 106.940, 131.250 106.662 C 131.938 106.385, 131.375 106.158, 130 106.158 C 128.625 106.158, 128.063 106.385, 128.750 106.662 M 64.116 108.820 C 64.023 110.676, 64.447 111.075, 66.240 110.820 C 67.572 110.629, 68.600 109.690, 68.777 108.500 C 69.048 106.672, 68.980 106.650, 67.987 108.250 C 67.390 109.213, 66.506 110, 66.024 110 C 65.541 110, 64.941 109.213, 64.689 108.250 C 64.355 106.972, 64.201 107.125, 64.116 108.820 M 78 109.372 C 78 110.964, 78.237 111.048, 79.576 109.937 C 80.883 108.853, 81.308 108.874, 82.061 110.064 C 82.782 111.204, 82.973 111.088, 82.985 109.500 C 82.996 108.029, 82.338 107.500, 80.500 107.500 C 78.723 107.500, 78 108.042, 78 109.372 M 86.158 109 C 86.158 110.375, 86.385 110.938, 86.662 110.250 C 86.940 109.563, 86.940 108.438, 86.662 107.750 C 86.385 107.063, 86.158 107.625, 86.158 109 M 92.116 108.750 C 92.027 110.482, 92.518 110.973, 94.250 110.884 C 95.844 110.802, 96.008 110.638, 94.811 110.323 C 93.883 110.077, 92.923 109.117, 92.677 108.189 C 92.362 106.992, 92.198 107.156, 92.116 108.750 M 99.598 107.736 C 98.525 108.809, 98.968 110, 100.441 110 C 101.234 110, 102.131 109.597, 102.435 109.105 C 103.071 108.075, 100.499 106.834, 99.598 107.736 M 106.321 108.500 C 106.584 111.045, 110.404 111.250, 110.635 108.730 C 110.748 107.493, 110.655 107.418, 110.325 108.480 C 109.682 110.552, 107.265 110.401, 106.631 108.250 C 106.230 106.890, 106.161 106.946, 106.321 108.500 M 113.015 109.250 C 113.027 110.988, 113.237 111.173, 113.939 110.064 C 114.692 108.874, 115.117 108.853, 116.424 109.937 C 117.784 111.065, 117.998 110.919, 117.985 108.872 C 117.974 107.161, 117.730 106.878, 117.110 107.857 C 116.510 108.803, 116.043 108.878, 115.566 108.107 C 114.413 106.241, 112.999 106.875, 113.015 109.250 M 128.750 108.662 C 129.438 108.940, 130.563 108.940, 131.250 108.662 C 131.938 108.385, 131.375 108.158, 130 108.158 C 128.625 108.158, 128.063 108.385, 128.750 108.662 M 128.750 110.662 C 129.438 110.940, 130.563 110.940, 131.250 110.662 C 131.938 110.385, 131.375 110.158, 130 110.158 C 128.625 110.158, 128.063 110.385, 128.750 110.662" stroke="none" fill="black" fill-rule="evenodd"/>
</svg>