<svg xmlns="http://www.w3.org/2000/svg" width="501" height="277" viewBox="0 0 501 277" version="1.1">
	<path d="M 218.677 8.500 C 200.765 11.421, 178.889 20.604, 164.406 31.281 C 154.075 38.898, 140.144 53.358, 133.367 63.500 C 123.488 78.283, 118.183 90.506, 114.425 107.144 C 98.482 177.733, 142.638 246.520, 214 262.262 C 226.675 265.058, 252.495 265.275, 264.728 262.688 C 302.345 254.733, 333.985 231.905, 352.591 199.294 C 357.951 189.900, 362.351 178.787, 365.773 166 C 368.049 157.492, 368.324 154.517, 368.407 137.500 C 368.509 116.717, 367.653 110.332, 362.775 95.500 C 359.204 84.641, 353.751 73.447, 347.292 63.718 C 341.104 54.398, 326.567 39.235, 316.915 32.032 C 303.884 22.309, 283.856 13.172, 267.500 9.487 C 257.462 7.226, 229.908 6.669, 218.677 8.500 M 206 50.423 C 206 50.656, 207.800 54.183, 209.999 58.261 C 215.201 67.905, 217.982 78.859, 218.692 92.500 L 219.265 103.500 211.628 108.329 C 202.051 114.386, 189.225 124.305, 177.250 134.917 C 172.162 139.425, 168 142.708, 168 142.213 C 168 141.718, 168.919 138.655, 170.042 135.407 C 176.261 117.421, 177.863 102.609, 174.467 94.500 C 171.708 87.911, 166.490 82.401, 159.884 79.100 C 151.716 75.018, 147.081 74.169, 145.414 76.449 C 144.368 77.879, 144.498 78.989, 146.163 82.840 C 150.950 93.909, 152.075 107.410, 149.554 123.500 C 148.301 131.491, 146.800 139.426, 140.360 172.094 C 139.428 176.820, 138.952 181.433, 139.302 182.344 C 140.664 185.895, 143.659 183.988, 149.473 175.866 C 162.169 158.134, 178.155 142.703, 195.500 131.437 C 202.815 126.686, 217.074 119, 218.573 119 C 219.530 119, 216.975 141.511, 214.885 151.500 C 213.482 158.204, 208.970 174.077, 207.859 176.214 C 207.047 177.776, 205.860 177.541, 194.542 173.573 C 182.912 169.495, 181 169.148, 181 171.113 C 181 172.192, 190.224 178.172, 197.750 181.972 C 201.188 183.708, 204 185.394, 204 185.718 C 204 187.700, 190.878 208.885, 184.005 218 C 182.553 219.925, 179.684 223.742, 177.630 226.482 C 175.504 229.317, 174.375 231.625, 175.010 231.837 C 176.694 232.398, 188.610 224.082, 196.377 216.927 C 202.641 211.155, 216.242 194.773, 217.230 191.809 C 217.537 190.890, 219.987 191.155, 227.069 192.874 C 275.700 204.678, 309.887 193.925, 334.424 159.108 C 337.491 154.756, 340 150.234, 340 149.059 C 340 147.884, 338.223 145.027, 336.052 142.711 L 332.104 138.500 337.127 133.393 L 342.149 128.286 339.219 121.893 C 330.885 103.714, 315.948 91.426, 297.412 87.499 C 288.995 85.716, 273.222 85.660, 262.750 87.376 C 255.115 88.627, 255 88.615, 255 86.519 C 255 82.802, 249.970 74.130, 245.688 70.465 C 237.317 63.299, 206 47.485, 206 50.423 M 262.500 105.434 C 261.950 105.659, 259.424 106.121, 256.887 106.462 L 252.275 107.081 250.505 113.791 C 245.207 133.884, 237.975 153.229, 229.358 170.364 C 226.353 176.339, 224.105 181.438, 224.361 181.695 C 225.921 183.254, 245.803 184.311, 254.800 183.312 C 278.574 180.674, 293.692 168.497, 299.116 147.620 C 305.369 123.551, 294.207 106.588, 271.351 105.425 C 267.033 105.206, 263.050 105.210, 262.500 105.434 M 314.699 115.780 C 310.702 120.197, 314.059 126.407, 320.125 125.820 C 324.750 125.373, 326.884 121.622, 324.890 117.443 C 323.114 113.721, 317.405 112.790, 314.699 115.780" stroke="none" fill="black" fill-rule="evenodd"/>
</svg>