<svg xmlns="http://www.w3.org/2000/svg" width="501" height="498" viewBox="0 0 501 498" version="1.1">
	<path d="M 218.677 79.500 C 185.046 84.984, 152.312 106.196, 133.028 135 C 123.728 148.890, 118.178 161.747, 114.250 178.500 C 112.015 188.031, 111.668 191.771, 111.655 206.500 C 111.642 220.662, 112.021 225.169, 113.925 233.500 C 125.626 284.696, 163.017 321.973, 214 333.272 C 226.428 336.026, 253.323 336.194, 265.298 333.593 C 309.789 323.929, 346.123 292.927, 361.121 251.832 C 367.279 234.958, 368.404 228.234, 368.454 208 C 368.504 187.750, 367.595 181.126, 362.758 166.500 C 356.571 147.790, 347.403 132.623, 333.500 118.096 C 315.242 99.018, 294.477 87.113, 268.500 80.828 C 257.649 78.203, 230.989 77.492, 218.677 79.500 M 206 121.423 C 206 121.656, 207.800 125.183, 209.999 129.261 C 215.156 138.822, 217.924 149.750, 218.672 163.500 L 219.270 174.500 211.630 179.329 C 202.055 185.383, 189.231 195.300, 177.250 205.917 C 172.162 210.425, 168 213.716, 168 213.231 C 168 212.746, 169.138 209.090, 170.530 205.108 C 180.934 175.327, 177.230 158.071, 158.565 149.378 C 151.204 145.949, 146.972 145.318, 145.435 147.420 C 144.412 148.819, 144.608 150.151, 146.538 154.900 C 153.324 171.601, 152.664 181.037, 140.369 243.094 C 139.432 247.820, 138.952 252.433, 139.302 253.344 C 140.673 256.917, 143.684 254.992, 149.589 246.768 C 162.440 228.872, 178.138 213.714, 195.500 202.437 C 202.815 197.686, 217.074 190, 218.573 190 C 219.530 190, 216.975 212.511, 214.885 222.500 C 213.482 229.204, 208.970 245.077, 207.859 247.214 C 207.047 248.776, 205.860 248.541, 194.542 244.573 C 182.912 240.495, 181 240.148, 181 242.113 C 181 243.192, 190.224 249.172, 197.750 252.972 C 201.188 254.708, 204 256.394, 204 256.718 C 204 259.198, 191.345 279.067, 180.502 293.611 C 176.870 298.481, 174.401 302.634, 175.013 302.838 C 176.734 303.411, 189.051 294.819, 196.557 287.807 C 202.773 282, 216.275 265.674, 217.230 262.809 C 217.537 261.890, 219.987 262.155, 227.069 263.874 C 275.745 275.689, 309.865 264.958, 334.424 230.108 C 337.491 225.756, 340 221.234, 340 220.059 C 340 218.884, 338.223 216.027, 336.052 213.711 L 332.104 209.500 337.127 204.393 L 342.149 199.286 339.219 192.893 C 330.885 174.714, 315.948 162.426, 297.412 158.499 C 288.995 156.716, 273.222 156.660, 262.750 158.376 C 255.115 159.627, 255 159.615, 255 157.519 C 255 153.802, 249.970 145.130, 245.688 141.465 C 237.317 134.299, 206 118.485, 206 121.423 M 262.500 176.434 C 261.950 176.659, 259.424 177.121, 256.887 177.462 L 252.275 178.081 250.505 184.791 C 245.216 204.846, 237.972 224.255, 229.384 241.381 C 226.383 247.365, 224.130 252.464, 224.378 252.711 C 225.923 254.257, 245.849 255.305, 254.800 254.312 C 278.475 251.685, 293.715 239.410, 299.116 218.620 C 302.422 205.894, 300.832 194.890, 294.483 186.567 C 290.235 180.997, 280.917 176.912, 271.351 176.425 C 267.033 176.206, 263.050 176.210, 262.500 176.434 M 314.699 186.780 C 310.693 191.206, 314.059 197.405, 320.150 196.820 C 327.549 196.110, 327.365 185.827, 319.942 185.201 C 317.467 184.993, 315.885 185.470, 314.699 186.780 M 250.764 350.941 C 239.638 354.515, 234.498 364.554, 238.806 374.295 C 240.386 377.867, 241.986 379.529, 246.163 381.936 C 249.098 383.628, 253.120 385.459, 255.099 386.004 C 259.163 387.124, 264.817 390.702, 266.303 393.095 C 267.882 395.636, 266.252 399.818, 263.035 401.482 C 261.420 402.317, 257.894 403, 255.198 403 C 248.345 403, 244.116 399.967, 241.362 393.077 L 239.224 387.729 237.420 390.482 C 235.123 393.987, 235.090 401.434, 237.352 405.754 C 241.311 413.316, 252.859 417.177, 263.425 414.470 C 270.301 412.708, 274.341 409.468, 277.104 403.500 C 282.135 392.635, 276.429 382.121, 262.737 377.028 C 254.872 374.102, 249.781 371.460, 248.925 369.860 C 246.520 365.367, 249.194 361.330, 255.221 360.352 C 258.975 359.742, 263.761 361.645, 267.835 365.367 L 270.170 367.500 272.098 365.124 C 274.785 361.811, 275.490 358.297, 273.862 356.324 C 270.436 352.175, 256.809 348.999, 250.764 350.941 M 350.143 351.437 C 340.178 354.673, 335.409 364.862, 339.394 374.400 C 341.237 378.812, 346.081 382.371, 354.559 385.542 C 363.257 388.796, 365.844 390.459, 367.021 393.556 C 369.106 399.040, 364.528 403, 356.101 403 C 348.557 403, 343.179 398.373, 340.521 389.597 C 339.955 387.725, 339.921 387.725, 338.504 389.597 C 337.711 390.643, 336.774 392.962, 336.420 394.750 C 334.159 406.184, 343.527 415.250, 357.603 415.250 C 369.049 415.250, 376.759 409.530, 379.124 399.282 C 380.205 394.600, 380.105 393.790, 377.900 389.349 C 374.912 383.331, 369.112 378.866, 360.606 376.035 C 352.411 373.308, 348.995 370.698, 349.015 367.177 C 349.036 363.616, 349.959 362.346, 353.510 360.996 C 357.592 359.444, 362.088 360.494, 366.550 364.040 C 370.017 366.795, 370.448 366.905, 372.064 365.442 C 375.098 362.697, 376.464 358.265, 374.872 356.337 C 370.983 351.626, 357.679 348.990, 350.143 351.437 M 104.852 351.807 L 102.204 352.113 103.738 358.307 C 104.658 362.019, 105.318 369.508, 105.386 377 C 105.553 395.322, 102.498 402, 93.952 402 C 89.582 402, 86.721 399.295, 84.534 393.096 C 82.549 387.470, 82.541 368.697, 84.520 360.500 C 86.677 351.567, 86.845 351.864, 79.818 352.202 C 73.934 352.486, 73.590 352.645, 72.667 355.500 C 72.134 357.150, 71.654 367.050, 71.599 377.500 C 71.506 395.328, 71.642 396.808, 73.801 401.500 C 77.104 408.675, 81.497 412.798, 87.790 414.627 C 98.301 417.683, 108.269 412.605, 113.084 401.742 C 115.118 397.152, 115.457 394.531, 115.810 380.679 C 116.213 364.850, 115.639 355.653, 114.093 353.151 C 113.253 351.791, 109.589 351.258, 104.852 351.807 M 126.358 353.577 C 123.589 357.802, 122.375 396.801, 124.577 410.750 L 125.091 414 131.564 414 L 138.038 414 137.419 411.250 C 137.078 409.738, 136.386 406.846, 135.882 404.826 C 132.846 392.674, 132.618 368, 135.541 368 C 138.262 368, 142.725 377.622, 146.577 391.792 C 149.321 401.888, 154.098 402.664, 156.036 393.328 C 157.404 386.737, 161.105 375.632, 163.433 371.129 C 165.832 366.490, 168.316 367.304, 169.177 373.013 C 170.273 380.276, 168.068 402.948, 165.357 412.295 C 164.885 413.924, 165.513 414.063, 172.126 413.795 C 178.939 413.519, 179.461 413.337, 180.108 411 C 180.489 409.625, 180.842 399.050, 180.893 387.500 C 180.981 367.310, 179.910 354.534, 177.962 352.570 C 177.455 352.059, 174.669 351.726, 171.770 351.830 C 166.876 352.006, 166.205 352.346, 162.370 356.596 C 160.098 359.114, 157.003 363.617, 155.492 366.603 C 152.615 372.290, 150.930 372.582, 149.411 367.660 C 148.148 363.567, 140.518 352.917, 138.511 352.446 C 137.405 352.186, 134.546 351.833, 132.159 351.661 C 128.575 351.404, 127.563 351.738, 126.358 353.577 M 414.414 352.139 C 414.194 352.496, 415.224 355.423, 416.703 358.644 C 418.296 362.113, 419.414 366.334, 419.446 369 L 419.500 373.500 412 374.172 C 407.875 374.541, 403.375 374.991, 402 375.172 C 399.689 375.475, 399.478 375.160, 399.214 371 C 399.035 368.165, 399.845 363.817, 401.405 359.250 L 403.881 352 397.476 352 C 389.604 352, 389.553 352.074, 387.933 366.049 C 386.634 377.249, 386.304 408.231, 387.445 411.825 C 388.065 413.781, 388.828 414, 395.023 414 L 401.911 414 400.543 410.121 C 396.788 399.478, 397.924 390.062, 403.396 386.476 C 410.534 381.800, 420.330 382.675, 421.521 388.096 C 422.372 391.971, 421.245 399.975, 418.880 406.850 C 417.846 409.855, 417 412.693, 417 413.157 C 417 413.620, 420.130 414, 423.955 414 L 430.909 414 431.579 410.430 C 431.948 408.466, 432.014 397.779, 431.726 386.680 C 431.335 371.569, 430.738 364.742, 429.352 359.500 L 427.500 352.500 421.157 351.995 C 417.669 351.718, 414.634 351.783, 414.414 352.139 M 20.455 354.323 C 19.663 357.478, 21.340 366.331, 23.803 372 C 24.879 374.475, 28.476 380, 31.798 384.277 L 37.838 392.054 35.419 398.007 C 33.972 401.568, 33 405.978, 33 408.980 L 33 414 39.750 414 L 46.500 414 46.541 407.750 C 46.598 399.106, 48.989 392.874, 56.990 380.516 C 62.343 372.247, 64.217 368.342, 65.466 362.848 C 67.706 353.001, 67.218 351.999, 60.183 352.005 L 54.500 352.010 54.464 358.755 C 54.434 364.240, 53.896 366.471, 51.583 370.699 C 50.018 373.558, 47.627 376.933, 46.270 378.199 L 43.802 380.500 40.534 376.737 C 36.513 372.108, 33.744 363.686, 34.141 357.297 L 34.440 352.500 27.750 352.205 C 21.403 351.925, 21.030 352.034, 20.455 354.323 M 192.903 354.182 C 190.493 358.684, 189.584 397.796, 191.588 410.750 L 192.091 414 199.045 414 C 202.870 414, 206 413.887, 206 413.750 C 206 413.613, 205.342 410.065, 204.539 405.866 C 201.312 389.005, 201.657 372.851, 205.630 354.750 L 206.233 352 200.152 352 C 194.925 352, 193.906 352.307, 192.903 354.182 M 286.772 354.750 C 286.077 356.373, 285.437 364.669, 285.211 374.988 C 284.737 396.587, 285.945 401.895, 292.982 409.140 C 296.687 412.953, 298.490 413.993, 303.003 414.915 C 312.829 416.923, 321.732 412.554, 326.291 403.487 C 329.279 397.545, 330.259 388.632, 329.720 372.298 C 329.032 351.471, 329.238 352, 321.816 352 C 316.613 352, 315.932 352.220, 316.396 353.750 C 318.456 360.543, 319.255 367.129, 319.339 378 C 319.422 388.742, 319.137 391.156, 317.312 395.164 C 314.917 400.425, 312.692 402, 307.655 402 C 303.425 402, 299.666 398.053, 297.849 391.705 C 295.720 384.268, 296.518 366.736, 299.533 354.725 L 300.217 352 294.084 352 C 288.345 352, 287.875 352.177, 286.772 354.750 M 443.813 354.750 C 442.376 358.221, 441.440 405.123, 442.709 410 L 443.620 413.500 450.310 413.796 C 453.990 413.958, 457 413.841, 457 413.535 C 457 413.229, 456.360 408.821, 455.578 403.739 C 452.494 383.707, 452.598 378.836, 456.610 355.750 L 457.262 352 451.106 352 C 445.333 352, 444.880 352.171, 443.813 354.750 M 20.227 453.750 L 20.500 471.500 31.250 471.784 C 38.168 471.966, 42 471.699, 42 471.034 C 42 470.395, 38.374 470, 32.500 470 L 23 470 23 453 C 23 438.441, 22.781 436, 21.477 436 C 20.160 436, 19.991 438.400, 20.227 453.750 M 102.311 437.952 C 98.475 440.291, 97.011 444.724, 97.011 454 C 97.011 465.846, 99.171 469.755, 106.949 471.985 C 111.616 473.324, 116.908 471.269, 119.790 467 C 121.976 463.762, 122.129 462.690, 121.827 452.666 C 121.501 441.858, 121.492 441.825, 118.234 438.916 C 114.196 435.310, 107.326 434.894, 102.311 437.952 M 181 450.423 C 181 464.446, 181.071 464.931, 183.564 467.894 C 189.559 475.018, 201.010 473.431, 204.380 465.009 C 206.651 459.332, 206.748 436, 204.500 436 C 203.238 436, 203 438.214, 203 449.923 C 203 463.443, 202.925 463.936, 200.411 466.923 C 198.179 469.576, 197.157 470, 193 470 C 188.843 470, 187.821 469.576, 185.589 466.923 C 183.075 463.936, 183 463.443, 183 449.923 C 183 441.308, 182.619 436, 182 436 C 181.380 436, 181 441.474, 181 450.423 M 265.422 453.665 C 265.479 466.652, 265.824 471.439, 266.724 471.740 C 267.648 472.049, 268.016 468.270, 268.224 456.342 L 268.500 440.535 278.881 456.268 C 284.590 464.920, 289.878 472, 290.631 472 C 291.739 472, 292 468.570, 292 454 C 292 442.667, 291.630 436, 291 436 C 290.376 436, 290 441.853, 290 451.559 C 290 462.076, 289.663 466.910, 288.960 466.475 C 288.388 466.122, 283.431 459.120, 277.944 450.916 C 272.457 442.712, 267.378 436, 266.656 436 C 265.621 436, 265.361 439.718, 265.422 453.665 M 355.669 438.045 C 354.239 439.171, 352.606 441.758, 352.040 443.795 C 350.548 449.167, 350.765 461.502, 352.421 465.466 C 354.952 471.524, 363.286 473.972, 369.839 470.583 C 373.843 468.513, 376 464.299, 376 458.550 L 376 454 370 454 C 366.667 454, 364 454.444, 364 455 C 364 455.550, 366.250 456, 369 456 C 373.582 456, 374 456.197, 374 458.351 C 374 462.295, 371.979 466.784, 369.460 468.434 C 366.413 470.431, 360.087 470.450, 357.261 468.471 C 351.367 464.342, 351.559 443.301, 357.527 439.391 C 360.644 437.348, 366.363 437.353, 369.488 439.400 C 373.274 441.881, 374.828 441.225, 371.694 438.468 C 367.969 435.191, 359.580 434.969, 355.669 438.045 M 435 454 L 435 472 446.059 472 C 453.177 472, 456.898 471.644, 456.500 471 C 456.159 470.448, 451.656 470, 446.441 470 L 437 470 437 462.500 L 437 455 445.500 455 C 450.500 455, 454 454.588, 454 454 C 454 453.412, 450.500 453, 445.500 453 L 437 453 437 445.500 L 437 438 446.441 438 C 451.656 438, 456.159 437.552, 456.500 437 C 456.898 436.356, 453.177 436, 446.059 436 L 435 436 435 454 M 107.333 437.695 C 106.141 437.927, 103.965 439.230, 102.497 440.590 C 99.864 443.031, 99.834 443.208, 100.165 454.421 C 100.480 465.117, 100.646 465.900, 103 467.856 C 106.020 470.366, 112.581 470.682, 115.739 468.471 C 118.508 466.531, 119.987 461.229, 119.994 453.218 C 120.002 444.844, 118.036 440.331, 113.568 438.464 C 111.641 437.659, 109.937 437.061, 109.782 437.136 C 109.627 437.211, 108.525 437.463, 107.333 437.695 M 70.605 451.299 C 67.960 453.234, 68.783 458.398, 71.805 458.827 C 73.073 459.006, 74.760 458.614, 75.555 457.954 C 77.622 456.239, 77.340 452.252, 75.066 451.035 C 72.650 449.742, 72.742 449.737, 70.605 451.299 M 152.571 451.571 C 149.551 454.592, 151.289 459, 155.500 459 C 159.849 459, 161.443 454.616, 158.171 451.655 C 155.888 449.589, 154.574 449.569, 152.571 451.571 M 236.452 452.433 C 234.440 455.503, 235.976 459, 239.335 459 C 243.698 459, 245.509 454.652, 242.429 451.571 C 240.202 449.345, 238.295 449.620, 236.452 452.433 M 323.496 452.004 C 319.814 456.073, 325.916 461.684, 329.800 457.800 C 331.637 455.963, 331.228 452.192, 329.066 451.035 C 326.353 449.584, 325.562 449.721, 323.496 452.004 M 406.750 451.080 C 404.612 452.326, 404.460 456.307, 406.487 457.989 C 407.340 458.697, 409.046 458.954, 410.487 458.593 C 412.460 458.098, 413 457.328, 413 455.016 C 413 453.127, 412.306 451.699, 411.066 451.035 C 408.764 449.803, 408.946 449.801, 406.750 451.080" stroke="none" fill="black" fill-rule="evenodd"/>
</svg>