<svg xmlns="http://www.w3.org/2000/svg" width="594" height="420" viewBox="0 0 594 420" version="1.1">
	<path d="M 299.959 98.167 L 299.918 120.500 286.233 134.850 L 272.548 149.200 250.320 126.350 C 234.838 110.435, 228.083 104.107, 228.062 105.500 C 228.044 106.755, 235.796 115.694, 248.875 129.500 L 269.718 151.500 267.770 154 C 266.699 155.375, 258.508 164.150, 249.568 173.500 C 240.628 182.850, 232.118 191.803, 230.657 193.396 C 228.120 196.161, 227.152 199.005, 228.750 198.995 C 229.434 198.991, 256.575 171.086, 266.920 159.750 C 269.304 157.137, 271.840 155, 272.555 155 C 273.270 155, 274.711 156.089, 275.758 157.419 C 276.804 158.749, 282.687 165.146, 288.830 171.634 L 300 183.429 300.013 205.465 L 300.027 227.500 311.464 215.500 C 317.755 208.900, 322.924 203.108, 322.951 202.628 C 322.978 202.149, 317.460 196.074, 310.688 189.128 C 283.619 161.364, 275.500 152.794, 275.500 151.988 C 275.500 151.214, 283.212 142.959, 312.217 112.686 C 318.111 106.533, 322.948 101.042, 322.967 100.483 C 323 99.473, 302.337 76.805, 300.801 76.167 C 300.361 75.983, 299.982 85.883, 299.959 98.167 M 317.306 123.695 C 298.496 143.579, 291.550 151.088, 291.248 151.865 C 290.964 152.594, 293.902 155.808, 315.938 178.883 L 331.375 195.048 335.688 190.816 C 338.059 188.488, 340 186.334, 340 186.028 C 340 185.723, 336.817 182.104, 332.927 177.987 C 329.037 173.869, 321.992 166.322, 317.273 161.216 L 308.691 151.932 311.596 148.770 C 313.193 147.030, 314.950 145.095, 315.500 144.470 C 316.050 143.844, 321.450 138.033, 327.500 131.556 C 333.550 125.080, 338.818 119.230, 339.207 118.556 C 339.633 117.818, 338.206 115.655, 335.613 113.111 L 331.312 108.890 317.306 123.695 M 228.004 130.004 L 228.008 140.500 232.969 145.973 C 238.539 152.119, 238.742 150.643, 231.177 159 C 228.019 162.489, 228.009 162.535, 228.036 173.500 L 228.064 184.500 234.782 177.468 C 238.477 173.601, 245.519 166.035, 250.432 160.654 L 259.364 150.872 243.682 135.190 L 228 119.508 228.004 130.004 M 340 150.918 C 340 167.923, 340.283 182.573, 340.628 183.472 C 341.180 184.912, 341.541 184.840, 343.628 182.880 L 346 180.651 346 151.981 C 346 125.475, 345.862 123.185, 344.171 121.655 C 340.097 117.968, 340 118.652, 340 150.918 M 352 152.641 L 352 176.490 364.235 164.254 L 376.471 152.019 367.985 143.683 C 363.318 139.098, 357.813 133.872, 355.750 132.070 L 352 128.793 352 152.641" stroke="none" fill="black" fill-rule="evenodd"/>
</svg>