<svg xmlns="http://www.w3.org/2000/svg" width="594" height="420" viewBox="0 0 594 420" version="1.1">
	<path d="M 0 210.002 L 0 420.003 297.250 419.752 L 594.500 419.500 594.752 209.750 L 595.005 0 297.502 0 L 0 0 0 210.002 M 0.491 210.500 C 0.491 326, 0.607 373.102, 0.750 315.170 C 0.893 257.239, 0.893 162.739, 0.750 105.170 C 0.607 47.602, 0.491 95, 0.491 210.500 M 473.914 213.250 C 466.963 223.416, 457.625 230.808, 441.327 239.045 C 428.467 245.545, 428.984 247.384, 442.066 241.672 C 451.324 237.630, 460.202 232.376, 469.675 225.334 C 473.622 222.400, 477.234 220, 477.702 220 C 478.171 220, 481.017 221.852, 484.027 224.117 C 488.452 227.445, 523.608 246, 525.489 246 C 525.770 246, 525.998 245.662, 525.996 245.250 C 525.994 244.838, 523.857 243.647, 521.246 242.604 C 510.097 238.150, 500.564 231.548, 489.691 220.750 C 483.738 214.838, 478.252 210, 477.501 210 C 476.751 210, 475.136 211.463, 473.914 213.250 M 74.325 246.406 C 74.697 247.375, 74.169 248.831, 73.032 249.968 C 71.385 251.615, 68 260.549, 68 263.249 C 68 263.736, 68.900 263.879, 70 263.567 C 71.100 263.255, 72.900 262.745, 74 262.433 C 75.886 261.897, 75.999 262.338, 75.979 270.183 C 75.968 274.757, 75.524 285.218, 74.992 293.429 C 74.460 301.640, 74.193 308.526, 74.399 308.732 C 74.604 308.937, 79.436 309.090, 85.136 309.072 C 101.304 309.019, 115.067 304.406, 119.572 297.531 C 122.897 292.456, 121.361 283.718, 115.957 276.963 L 113.927 274.426 116.882 268.567 C 118.546 265.269, 120.103 260.260, 120.445 257.105 C 121.064 251.387, 119.984 245.376, 118.387 245.654 C 117.899 245.739, 111.498 246.377, 104.162 247.071 C 92.850 248.142, 90.693 248.122, 89.962 246.939 C 89.384 246.003, 86.563 245.416, 81.398 245.155 C 74.580 244.811, 73.768 244.954, 74.325 246.406 M 154.899 245.745 L 144.298 246.065 143.706 255.788 C 142.876 269.402, 138.759 287.373, 133.548 300.121 C 133.060 301.315, 134.068 302.436, 137.370 304.371 C 139.838 305.817, 142.104 307, 142.408 307 C 144.819 307, 149.689 290.681, 152.555 273 C 153.491 267.225, 154.665 261.712, 155.164 260.750 C 156.256 258.642, 161.257 258.400, 162.897 260.376 C 163.526 261.133, 164.689 268.671, 165.483 277.126 C 166.927 292.512, 167.706 296.638, 170.012 301.111 C 171.615 304.218, 176.089 309, 177.395 309 C 177.956 309, 180.048 307.406, 182.042 305.459 L 185.669 301.918 183.445 297.209 C 179.430 288.708, 176.498 273.867, 174.462 251.750 L 173.841 245 169.670 245.212 C 167.377 245.329, 160.730 245.569, 154.899 245.745 M 205.250 245.737 L 200 246.105 200.007 270.802 C 200.011 284.386, 200.301 298.538, 200.652 302.250 L 201.289 309 207.145 309 L 213 309 213.009 289.750 C 213.013 279.163, 213.305 268.101, 213.658 265.169 C 214.433 258.714, 216.158 257.719, 224.728 258.783 L 230.500 259.500 230.767 263.500 C 232.294 286.353, 239.370 310, 244.682 310 C 245.533 310, 247.910 308.105, 249.966 305.789 L 253.703 301.577 251.273 296.082 C 246.280 284.792, 242 263.651, 242 250.276 L 242 245 226.250 245.185 C 217.588 245.287, 208.137 245.535, 205.250 245.737 M 351 245.946 L 340.500 246.500 339.808 256.941 C 339.022 268.799, 337.108 278.362, 332.828 291.816 C 329.563 302.076, 329.628 302.408, 335.523 305.582 C 338.630 307.256, 339.197 307.308, 340.043 305.998 C 342.070 302.861, 345.913 288.537, 348.019 276.267 C 349.224 269.245, 350.530 262.855, 350.922 262.067 C 352.905 258.075, 359.577 258.214, 360.453 262.265 C 360.719 263.494, 361.386 270.575, 361.937 278 C 362.487 285.425, 363.613 293.750, 364.440 296.500 C 366.008 301.718, 371.232 309, 373.406 309 C 374.100 309, 376.376 307.523, 378.464 305.717 L 382.262 302.434 380.268 298.467 C 376.131 290.236, 372.773 275.673, 371.513 260.500 C 371.193 256.650, 370.694 251.588, 370.405 249.250 L 369.877 245 365.689 245.196 C 363.385 245.303, 356.775 245.641, 351 245.946 M 406.250 245.747 L 401 246.105 401 270.815 C 401 295.204, 400.972 295.539, 398.829 296.513 C 396.901 297.390, 395.944 299.237, 393.656 306.500 C 393.060 308.390, 393.547 308.517, 402.554 308.810 C 411.491 309.101, 412.198 308.977, 413.950 306.810 C 415.683 304.669, 416.693 304.476, 427.802 304.169 L 439.785 303.837 441.914 298.274 C 443.085 295.213, 443.867 292.534, 443.652 292.318 C 443.436 292.103, 437.689 292.389, 430.880 292.954 C 418.886 293.948, 418.445 293.915, 416.750 291.879 C 415.788 290.724, 414.941 288.366, 414.870 286.639 C 414.798 284.913, 414.460 274.986, 414.120 264.581 C 413.747 253.200, 413.102 245.607, 412.500 245.526 C 411.950 245.451, 409.137 245.550, 406.250 245.747 M 474.497 247.349 C 469.003 249.908, 460.347 258.642, 457.629 264.369 C 456.702 266.323, 455.672 271.445, 455.340 275.751 C 454.203 290.485, 459.368 300.782, 470.883 306.743 C 481.137 312.051, 489.397 310.603, 498.014 301.986 C 504.279 295.721, 507.309 288.289, 507.793 278 C 508.122 270.977, 507.803 268.468, 505.953 263.559 C 503.084 255.948, 496.306 248.974, 489.537 246.667 C 483.045 244.455, 480.460 244.572, 474.497 247.349 M 293.773 247.555 C 285.434 249.576, 278.387 253.489, 271.843 259.732 C 264.211 267.011, 262.547 271.376, 263.255 282.261 C 263.928 292.604, 267.017 301.164, 271.136 304.097 C 275.160 306.962, 282.235 309, 288.159 309 C 290.822 309, 293 308.784, 293 308.520 C 293 308.256, 292.308 306.310, 291.462 304.196 C 290.317 301.335, 288.908 299.903, 285.955 298.600 C 279.332 295.678, 274.943 287.933, 274.819 278.947 C 274.666 267.858, 289.909 258, 307.210 258 C 313.701 258, 313.760 257.904, 311.881 250.443 L 310.763 246 305.131 246.083 C 302.034 246.129, 296.923 246.791, 293.773 247.555 M 93.357 257.925 L 89.215 259.806 89.737 266.653 C 90.025 270.419, 90.707 274.063, 91.253 274.750 C 93.905 278.092, 101.712 274.100, 106.121 267.148 C 109.535 261.765, 109.642 260.642, 107 258 C 104.444 255.444, 98.889 255.413, 93.357 257.925 M 476.500 259.837 C 472.491 262.282, 467.179 268.439, 466.400 271.544 C 465.128 276.609, 466.455 286.425, 468.868 289.815 C 471.482 293.485, 477.666 297, 481.510 297 C 489.460 297, 497.989 286.648, 497.989 277 C 497.989 269.617, 493.299 261.859, 487.329 259.364 C 482.934 257.528, 480.083 257.652, 476.500 259.837 M 301.853 284.722 C 301.237 286.250, 300.533 289.750, 300.288 292.500 C 299.746 298.573, 302.795 305.035, 307.639 308.082 L 310.777 310.055 313.526 305.365 C 316.152 300.884, 316.193 300.615, 314.446 299.337 C 313.441 298.602, 312.308 298, 311.930 298 C 310.197 298, 308.802 292.007, 309.841 289.026 C 310.856 286.115, 310.736 285.906, 306.936 283.967 L 302.971 281.945 301.853 284.722 M 96.515 284.908 C 91.232 286.449, 90.423 287.028, 89.615 289.848 C 87.493 297.247, 93.104 300.398, 100.102 295.737 C 104.460 292.834, 107.722 286.575, 105.975 284.469 C 104.495 282.686, 104.065 282.706, 96.515 284.908 M 155 295.351 C 155 296.094, 155.494 298.119, 156.098 299.851 C 157.039 302.551, 157.681 303, 160.598 303 C 164.328 303, 164.897 301.490, 163.025 296.565 C 162.232 294.481, 161.388 294, 158.525 294 C 156.231 294, 155 294.472, 155 295.351 M 351 294.634 C 351 294.983, 351.521 297.008, 352.158 299.134 C 353.246 302.765, 353.554 303, 357.226 303 C 360.821 303, 361.078 302.819, 360.434 300.750 C 358.438 294.344, 358.137 294, 354.525 294 C 352.586 294, 351 294.285, 351 294.634 M 176.200 330.200 C 174.456 331.944, 174.730 335.959, 176.644 336.693 C 178.159 337.275, 180.836 337.651, 185.250 337.901 C 186.213 337.955, 187 338.426, 187 338.948 C 187 339.469, 184.673 340.031, 181.829 340.198 C 178.699 340.381, 176.488 341.013, 176.228 341.800 C 175.514 343.967, 187.996 342.971, 189.391 340.750 C 191.243 337.800, 188.947 335.567, 183.476 335 C 176.703 334.298, 176.459 332.191, 183.106 331.805 C 186.172 331.626, 188.514 330.982, 188.755 330.250 C 189.306 328.577, 177.869 328.531, 176.200 330.200 M 197.343 330.548 C 196.322 333.209, 197.785 340.370, 199.625 341.715 C 202.131 343.547, 207.404 343.303, 209.957 341.236 C 211.593 339.911, 212.181 338.257, 212.318 334.591 C 212.435 331.447, 212.055 329.555, 211.250 329.272 C 210.398 328.973, 210 329.996, 210 332.482 C 210 337.939, 208.512 340, 204.572 340 C 200.765 340, 200 338.814, 200 332.918 C 200 329, 198.463 327.629, 197.343 330.548 M 221.200 330.200 C 219.473 331.927, 219.723 335.956, 221.602 336.677 C 222.483 337.015, 224.845 337.388, 226.852 337.506 C 231.774 337.795, 232 337.858, 232 338.948 C 232 339.469, 229.673 340.031, 226.829 340.198 C 223.699 340.381, 221.488 341.013, 221.228 341.800 C 220.514 343.967, 232.996 342.971, 234.391 340.750 C 236.243 337.800, 233.947 335.567, 228.476 335 C 221.703 334.298, 221.459 332.191, 228.106 331.805 C 231.172 331.626, 233.514 330.982, 233.755 330.250 C 234.306 328.577, 222.869 328.531, 221.200 330.200 M 242.412 330.369 C 241.485 332.785, 242.459 342.329, 243.673 342.729 C 244.318 342.941, 244.993 342.077, 245.173 340.808 C 245.455 338.820, 246.159 338.458, 250.250 338.195 C 254.793 337.904, 255 338.005, 255 340.529 C 255 342.195, 255.461 343.013, 256.250 342.750 C 257.915 342.195, 257.981 329.827, 256.322 329.274 C 255.647 329.049, 255.007 330.080, 254.822 331.691 C 254.522 334.306, 254.189 334.500, 250 334.500 C 245.834 334.500, 245.476 334.296, 245.184 331.750 C 244.849 328.842, 243.295 328.068, 242.412 330.369 M 266 336 C 266 340, 266.429 343, 267 343 C 267.571 343, 268 340, 268 336 C 268 332, 267.571 329, 267 329 C 266.429 329, 266 332, 266 336 M 285 336 L 285 343 291.583 343 C 296.403 343, 298.056 342.665, 297.755 341.750 C 297.515 341.021, 295.186 340.374, 292.171 340.198 L 287 339.895 287 334.448 C 287 331.451, 286.550 329, 286 329 C 285.429 329, 285 332, 285 336 M 306 331 C 303.198 333.802, 303.317 339.408, 306.223 341.443 C 311.700 345.280, 320 342.115, 320 336.189 C 320 329.755, 310.694 326.306, 306 331 M 328 334.443 C 328 338.935, 328.389 340.159, 330.223 341.443 C 336.339 345.728, 343.368 341.318, 342.798 333.554 C 342.464 329.013, 340.649 328.424, 340.226 332.719 C 339.574 339.333, 339.142 340, 335.516 340 C 331.498 340, 330 337.981, 330 332.566 C 330 330.605, 329.550 329, 329 329 C 328.450 329, 328 331.449, 328 334.443 M 351 336 C 351 340, 351.429 343, 352 343 C 353.063 343, 353.326 341.832, 353.052 338.346 C 352.756 334.589, 354.816 334.789, 359.337 338.956 C 365.462 344.602, 366.149 344.315, 365.796 336.250 C 365.467 328.749, 363.674 327.078, 363.189 333.819 L 362.878 338.139 357.530 333.569 C 354.588 331.056, 351.915 329, 351.591 329 C 351.266 329, 351 332.150, 351 336 M 375.073 331.635 C 373.933 333.084, 373 335.048, 373 336 C 373 336.952, 373.933 338.916, 375.073 340.365 C 376.738 342.483, 377.990 343, 381.450 343 C 386.273 343, 388.326 341.327, 387.827 337.805 C 387.552 335.866, 386.904 335.500, 383.750 335.500 C 379.549 335.500, 378.540 337.325, 382.469 337.816 C 386.454 338.315, 385.421 340.157, 381.351 339.810 C 373.621 339.153, 374.298 332.605, 382.120 332.366 C 388.335 332.177, 388.378 332.160, 387 330.500 C 386.246 329.592, 384.057 329, 381.450 329 C 377.990 329, 376.738 329.517, 375.073 331.635 M 396.235 330.204 C 396.531 331.092, 398.763 331.500, 403.333 331.500 C 412.513 331.500, 412.361 329.575, 403.151 329.204 C 397.482 328.976, 395.901 329.204, 396.235 330.204 M 307.571 333.571 C 304.121 337.022, 306.802 340.299, 312.680 339.815 C 315.793 339.558, 316.560 339.074, 316.827 337.195 C 317.006 335.927, 316.614 334.240, 315.954 333.445 C 314.365 331.530, 309.540 331.602, 307.571 333.571 M 396 335.893 C 396 337.246, 398.685 338, 403.500 338 C 408.514 338, 411.227 337.177, 410.435 335.895 C 409.714 334.728, 396 334.725, 396 335.893 M 396.708 340.626 C 394.848 342.486, 396.592 343.064, 403.250 342.794 C 407.238 342.632, 410.500 342.050, 410.500 341.500 C 410.500 340.356, 397.783 339.550, 396.708 340.626" stroke="none" fill="black" fill-rule="evenodd"/>
</svg>